<svg width="14" height="13" viewBox="0 0 14 13" fill="none" xmlns="http://www.w3.org/2000/svg">
<path fill-rule="evenodd" clip-rule="evenodd" d="M3.28422 1.51507C3.26527 0.655047 2.65027 0 1.65158 0C0.652903 0 0 0.655047 0 1.51507C0 2.35728 0.633606 3.03119 1.61369 3.03119H1.63235C2.65027 3.03119 3.28422 2.35728 3.28422 1.51507ZM3.09212 4.22853H0.172801V12.9999H3.09212V4.22853ZM10.259 4.02242C12.18 4.02242 13.6202 5.27634 13.6202 7.97051L13.6201 12.9997H10.7009V8.30706C10.7009 7.12836 10.2785 6.32405 9.22166 6.32405C8.41513 6.32405 7.93474 6.86627 7.72375 7.38998C7.64656 7.57767 7.62761 7.83918 7.62761 8.10133V13H4.70794C4.70794 13 4.74642 5.05168 4.70794 4.22862H7.62761V5.47101C8.01508 4.87377 8.70902 4.02242 10.259 4.02242Z" fill="#9BC1DE"/>
</svg>
