<svg width="108" height="8" viewBox="0 0 108 8" fill="none" xmlns="http://www.w3.org/2000/svg">
<path fill-rule="evenodd" clip-rule="evenodd" d="M50.3872 4.10439C50.3221 2.51472 53.0887 3.02206 53.9674 3.8338C54.8788 2.98824 57.6128 2.54854 57.5477 4.10439C57.6128 5.66023 54.8788 5.22054 53.9674 4.37497C53.0887 5.22054 50.3221 5.69405 50.3872 4.10439ZM57.9383 4.40879H86.1897C89.3143 4.54408 93.9361 4.64555 96.5074 3.66469C99.632 2.48089 100.706 -0.461684 103.993 0.789757C104.775 1.06034 105.36 2.00738 105.588 2.7853C106.434 5.69406 102.626 5.86317 102.659 3.73234C102.659 3.05588 103.017 2.85294 103.408 2.75148C103.831 3.32646 104.189 3.49558 104.905 3.12353C104.384 1.63533 102.106 2.0412 102.106 3.79998C102.106 5.62641 104.482 6.60727 105.718 5.28818C106.597 4.30732 106.207 2.48089 105.36 1.26328C108.225 3.15735 107.281 7.08079 103.993 7.31755C101.943 7.45284 101.617 2.85294 97.972 5.96464C100.739 5.89699 101.715 8.09547 103.863 7.96018C108.615 7.6896 109.787 2.10884 104.644 0.350062C100.804 -0.969025 97.7116 1.77062 94.2941 3.0897C91.7554 4.03674 88.8912 3.73234 86.1572 3.76616H57.9383V4.40879ZM49.9966 4.40879H21.8428C18.7182 4.54408 14.129 4.64555 11.5252 3.66469C8.40059 2.48089 7.35906 -0.461684 4.03919 0.789757C3.25804 1.09416 2.67218 2.00738 2.4118 2.81912C1.56556 5.72788 5.37364 5.89699 5.3411 3.76616C5.3411 3.0897 4.98307 2.88677 4.5925 2.7853C4.16938 3.36029 3.8439 3.5294 3.0953 3.15735C3.61607 1.66915 5.89441 2.07502 5.89441 3.8338C5.89441 5.66023 3.51842 6.64109 2.28161 5.322C1.40282 4.37497 1.79339 2.54854 2.63963 1.2971C-0.192022 3.22499 0.751863 7.14843 4.00664 7.35137C6.05715 7.48666 6.38263 2.88677 10.028 5.99846C7.26142 5.93081 6.28498 8.12929 4.13683 7.994C-0.615143 7.75724 -1.78686 2.14267 3.35568 0.383885C7.19632 -0.935202 10.2884 1.80444 13.7059 3.12353C16.2446 4.07056 19.1088 3.76616 21.8428 3.79998H49.9966V4.40879ZM54.2604 4.10439C54.9764 4.88231 56.4411 4.74702 56.4085 4.10439C56.376 3.42793 54.9113 3.36029 54.2604 4.10439ZM53.7071 4.10439C53.0561 3.39411 51.5915 3.32646 51.5589 4.10439C51.5915 4.88231 53.0561 4.84849 53.7071 4.10439Z" fill="#E3C129"/>
</svg>
