<svg width="243" height="18" viewBox="0 0 243 18" fill="none" xmlns="http://www.w3.org/2000/svg">
<path fill-rule="evenodd" clip-rule="evenodd" d="M113.371 9.23487C113.225 5.65811 119.449 6.79963 121.427 8.62606C123.477 6.72353 129.629 5.73421 129.482 9.23487C129.629 12.7355 123.477 11.7462 121.427 9.84368C119.449 11.7462 113.225 12.8116 113.371 9.23487ZM130.361 9.91978H193.927C200.957 10.2242 211.356 10.4525 217.142 8.24555C224.172 5.58201 226.589 -1.03879 233.985 1.77695C235.743 2.38576 237.061 4.5166 237.573 6.26692C239.477 12.8116 230.909 13.1921 230.983 8.39775C230.983 6.87573 231.788 6.41913 232.667 6.19082C233.619 7.48454 234.424 7.86505 236.036 7.02793C234.864 3.67948 229.738 4.5927 229.738 8.54996C229.738 12.6594 235.084 14.8664 237.866 11.8984C239.844 9.69147 238.965 5.58201 237.061 2.84237C243.505 7.10404 241.382 15.9318 233.985 16.4645C229.371 16.7689 228.639 6.41913 220.437 13.4204C226.662 13.2682 228.859 18.2148 233.692 17.9104C244.384 17.3016 247.02 4.7449 235.45 0.787639C226.808 -2.18031 219.851 3.98389 212.162 6.95183C206.45 9.08267 200.005 8.39776 193.854 8.47386H130.361V9.91978ZM112.492 9.91978H49.1463C42.116 10.2242 31.7902 10.4525 25.9316 8.24555C18.9013 5.58201 16.5579 -1.03879 9.08817 1.77695C7.33059 2.46186 6.01241 4.5166 5.42655 6.34302C3.5225 12.8877 12.0907 13.2682 12.0175 8.47386C12.0175 6.95183 11.2119 6.49523 10.3331 6.26692C9.3811 7.56064 8.64878 7.94115 6.96443 7.10404C8.13615 3.75558 13.2624 4.6688 13.2624 8.62606C13.2624 12.7355 7.91645 14.9425 5.13362 11.9745C3.15634 9.84368 4.03513 5.73421 5.93918 2.91847C-0.432049 7.25624 1.69169 16.084 9.01494 16.5406C13.6286 16.845 14.3609 6.49523 22.5629 13.4965C16.3382 13.3443 14.1412 18.2909 9.30787 17.9865C-1.38407 17.4538 -4.02044 4.821 7.55029 0.86374C16.1917 -2.1042 23.1488 4.05999 30.8382 7.02793C36.5503 9.15877 42.9948 8.47386 49.1463 8.54996H112.492V9.91978ZM122.086 9.23487C123.697 10.9852 126.992 10.6808 126.919 9.23487C126.846 7.71284 123.55 7.56064 122.086 9.23487ZM120.841 9.23487C119.376 7.63674 116.081 7.48454 116.008 9.23487C116.081 10.9852 119.376 10.9091 120.841 9.23487Z" fill="#AB942E"/>
</svg>
