<svg width="18" height="17" viewBox="0 0 18 17" fill="none" xmlns="http://www.w3.org/2000/svg">
<path fill-rule="evenodd" clip-rule="evenodd" d="M4.90652 2.42313C4.88291 1.35143 4.11653 0.535156 2.87205 0.535156C1.62757 0.535156 0.813965 1.35143 0.813965 2.42313C0.813965 3.47263 1.60352 4.31241 2.82483 4.31241H2.84808C4.11653 4.31241 4.90652 3.47263 4.90652 2.42313ZM4.66719 5.80432H1.02935V16.7345H4.66719V5.80432ZM13.598 5.54772C15.9918 5.54772 17.7865 7.11026 17.7865 10.4675L17.7863 16.7346H14.1486V10.8869C14.1486 9.41812 13.6222 8.41584 12.3053 8.41584C11.3003 8.41584 10.7016 9.09152 10.4387 9.74413C10.3425 9.97802 10.3189 10.3039 10.3189 10.6306V16.7349H6.68064C6.68064 16.7349 6.72859 6.83031 6.68064 5.80467H10.3189V7.35285C10.8018 6.60861 11.6665 5.54772 13.598 5.54772Z" fill="white"/>
</svg>
