<svg width="18" height="18" viewBox="0 0 18 18" fill="none" xmlns="http://www.w3.org/2000/svg">
<path fill-rule="evenodd" clip-rule="evenodd" d="M9.16614 0C6.841 0 6.5492 0.0101667 5.63598 0.0517253C4.72454 0.0934622 4.10241 0.237758 3.55805 0.449475C2.99496 0.668148 2.5173 0.960663 2.04143 1.43671C1.5652 1.91259 1.27269 2.39024 1.0533 2.95316C0.841048 3.4977 0.696574 4.12001 0.655551 5.03108C0.614706 5.9443 0.604004 6.23628 0.604004 8.56142C0.604004 10.8866 0.614349 11.1775 0.655729 12.0907C0.697644 13.0021 0.84194 13.6243 1.05348 14.1686C1.27233 14.7317 1.56485 15.2094 2.0409 15.6852C2.51659 16.1615 2.99425 16.4547 3.55698 16.6734C4.1017 16.8851 4.72401 17.0294 5.63527 17.0711C6.54848 17.1127 6.84011 17.1228 9.16507 17.1228C11.4904 17.1228 11.7813 17.1127 12.6945 17.0711C13.6059 17.0294 14.2288 16.8851 14.7735 16.6734C15.3364 16.4547 15.8134 16.1615 16.2891 15.6852C16.7653 15.2094 17.0578 14.7317 17.2772 14.1688C17.4877 13.6243 17.6321 13.0019 17.6749 12.0909C17.716 11.1776 17.7267 10.8866 17.7267 8.56142C17.7267 6.23628 17.716 5.94448 17.6749 5.03126C17.6321 4.11983 17.4877 3.4977 17.2772 2.95333C17.0578 2.39024 16.7653 1.91259 16.2891 1.43671C15.8128 0.960484 15.3366 0.667969 14.773 0.449475C14.2272 0.237758 13.6047 0.0934622 12.6933 0.0517253C11.78 0.0101667 11.4893 0 9.16346 0H9.16614ZM8.39829 1.54289C8.62624 1.54254 8.88058 1.54289 9.16632 1.54289C11.4522 1.54289 11.7232 1.5511 12.6258 1.59212C13.4606 1.63029 13.9136 1.76977 14.2154 1.88696C14.615 2.04213 14.8998 2.22763 15.1993 2.52728C15.4989 2.82693 15.6844 3.11231 15.8399 3.51184C15.9571 3.81328 16.0968 4.26632 16.1348 5.10106C16.1758 6.00357 16.1847 6.27468 16.1847 8.55951C16.1847 10.8443 16.1758 11.1155 16.1348 12.018C16.0966 12.8527 15.9571 13.3057 15.8399 13.6072C15.6848 14.0067 15.4989 14.2912 15.1993 14.5907C14.8996 14.8903 14.6151 15.0758 14.2154 15.231C13.914 15.3487 13.4606 15.4878 12.6258 15.526C11.7233 15.567 11.4522 15.576 9.16632 15.576C6.88024 15.576 6.60931 15.567 5.70679 15.526C4.87205 15.4875 4.41901 15.348 4.11704 15.2308C3.71751 15.0756 3.43213 14.8901 3.13248 14.5905C2.83283 14.2908 2.64733 14.0062 2.4918 13.6065C2.37462 13.305 2.23496 12.852 2.19697 12.0173C2.15594 11.1147 2.14774 10.8436 2.14774 8.55737C2.14774 6.27112 2.15594 6.00143 2.19697 5.09892C2.23514 4.26418 2.37462 3.81113 2.4918 3.50934C2.64698 3.10981 2.83283 2.82443 3.13248 2.52478C3.43213 2.22513 3.71751 2.03963 4.11704 1.8841C4.41883 1.76638 4.87205 1.62726 5.70679 1.58891C6.49658 1.55324 6.80265 1.54254 8.39829 1.54075V1.54289ZM13.7361 2.96429C13.1689 2.96429 12.7087 3.42393 12.7087 3.9913C12.7087 4.5585 13.1689 5.01867 13.7361 5.01867C14.3033 5.01867 14.7634 4.5585 14.7634 3.9913C14.7634 3.42411 14.3033 2.96393 13.7361 2.96393V2.96429ZM9.16643 4.16466C6.73837 4.16466 4.76978 6.13325 4.76978 8.56131C4.76978 10.9894 6.73837 12.9571 9.16643 12.9571C11.5945 12.9571 13.5624 10.9894 13.5624 8.56131C13.5624 6.13325 11.5943 4.16466 9.16625 4.16466H9.16643ZM9.16621 5.70765C10.7422 5.70765 12.02 6.98527 12.02 8.56146C12.02 10.1375 10.7422 11.4153 9.16621 11.4153C7.59001 11.4153 6.3124 10.1375 6.3124 8.56146C6.3124 6.98527 7.59001 5.70765 9.16621 5.70765Z" fill="white"/>
</svg>
