<svg width="17" height="13" viewBox="0 0 17 13" fill="none" xmlns="http://www.w3.org/2000/svg">
<path fill-rule="evenodd" clip-rule="evenodd" d="M8.47468 3.5568L8.50836 4.11225L7.94694 4.04424C5.90338 3.78351 4.11806 2.89932 2.60223 1.41434L1.86116 0.677512L1.67027 1.22163C1.26605 2.43456 1.5243 3.7155 2.36643 4.57702C2.81557 5.05312 2.71451 5.12113 1.93975 4.83774C1.67027 4.74705 1.43448 4.67904 1.41202 4.71305C1.33342 4.7924 1.6029 5.82395 1.81624 6.23204C2.10818 6.79883 2.70328 7.35428 3.35453 7.68302L3.90472 7.94374L3.25348 7.95508C2.62469 7.95508 2.60223 7.96641 2.6696 8.20446C2.89417 8.94129 3.78121 9.72346 4.76931 10.0635L5.46547 10.3016L4.85914 10.6643C3.96086 11.1858 2.9054 11.4805 1.84993 11.5032C1.34465 11.5145 0.929199 11.5598 0.929199 11.5939C0.929199 11.7072 2.29906 12.342 3.09628 12.5914C5.48793 13.3282 8.32871 13.0108 10.4621 11.7526C11.9779 10.857 13.4938 9.07732 14.2012 7.35428C14.5829 6.43608 14.9647 4.75839 14.9647 3.95355C14.9647 3.4321 14.9984 3.36409 15.6272 2.74062C15.9977 2.37788 16.3458 1.98113 16.4131 1.86777C16.5254 1.65239 16.5142 1.65239 15.9416 1.8451C14.9871 2.18517 14.8524 2.13983 15.324 1.62972C15.6721 1.26697 16.0875 0.609498 16.0875 0.41679C16.0875 0.382783 15.9191 0.439461 15.7282 0.541483C15.5261 0.654841 15.077 0.824877 14.7401 0.926899L14.1338 1.11961L13.5836 0.745527C13.2804 0.541483 12.8537 0.314768 12.6292 0.246753C12.0565 0.0880526 11.1807 0.110724 10.6642 0.292096C9.26066 0.802206 8.37362 2.11715 8.47468 3.5568Z" fill="white"/>
</svg>
