<svg width="18" height="13" viewBox="0 0 18 13" fill="none" xmlns="http://www.w3.org/2000/svg">
<path fill-rule="evenodd" clip-rule="evenodd" d="M15.2749 1.04296C16.0116 1.24513 16.5919 1.84082 16.7888 2.5973C17.1466 3.96833 17.1466 6.82899 17.1466 6.82899C17.1466 6.82899 17.1466 9.68956 16.7888 11.0607C16.5919 11.8172 16.0116 12.4129 15.2749 12.6151C13.9397 12.9825 8.58526 12.9825 8.58526 12.9825C8.58526 12.9825 3.23083 12.9825 1.89555 12.6151C1.15879 12.4129 0.578564 11.8172 0.381653 11.0607C0.0239258 9.68956 0.0239258 6.82899 0.0239258 6.82899C0.0239258 6.82899 0.0239258 3.96833 0.381653 2.5973C0.578564 1.84082 1.15879 1.24513 1.89555 1.04296C3.23083 0.675537 8.58526 0.675537 8.58526 0.675537C8.58526 0.675537 13.9397 0.675537 15.2749 1.04296ZM6.98013 4.4213V9.77213L11.2608 7.09682L6.98013 4.4213Z" fill="white"/>
</svg>
